<svg width="176" height="187" viewBox="0 0 176 187" fill="none" xmlns="http://www.w3.org/2000/svg">
<path d="M89.5522 0.456767C99.2186 -2.13334 108.064 6.71204 105.474 16.3785L94.715 56.5312C92.1249 66.1976 80.0419 69.4353 72.9656 62.359L43.5717 32.9651C36.4954 25.8888 39.7331 13.8058 49.3995 11.2157L89.5522 0.456767Z" fill="#F59E0B"/>
<path d="M43.5719 33.3911C36.4956 26.3148 39.7332 14.2318 49.3996 11.6417L89.5524 0.8828C99.2188 -1.70731 108.064 7.13807 105.474 16.8045L94.7152 56.9573C92.1251 66.6237 80.0421 69.8613 72.9658 62.785L43.5719 33.3911Z" fill="#F59E0B"/>
<path d="M11.2157 49.8254C13.8058 40.159 25.8888 36.9214 32.9651 43.9977L62.359 73.3916C69.4353 80.4679 66.1976 92.5509 56.5312 95.141L16.3785 105.9C6.71205 108.49 -2.13334 99.6446 0.456766 89.9782L11.2157 49.8254Z" fill="#F59E0B"/>
<path d="M143.676 153.295C150.753 160.371 147.515 172.454 137.848 175.044L97.6957 185.803C88.0293 188.393 79.1839 179.548 81.774 169.881L92.5329 129.729C95.123 120.062 107.206 116.824 114.282 123.901L143.676 153.295Z" fill="#F59E0B"/>
<path d="M172.072 44.5118C179.149 51.5881 175.911 63.6711 166.244 66.2612L126.092 77.0201C116.425 79.6102 107.58 70.7648 110.17 61.0984L120.929 20.9456C123.519 11.2792 135.602 8.04159 142.678 15.1179L172.072 44.5118Z" fill="#F59E0B"/>
<path d="M66.4309 165.852C63.8408 175.518 51.7578 178.756 44.6815 171.679L15.2876 142.286C8.2113 135.209 11.4489 123.126 21.1153 120.536L61.2681 109.777C70.9345 107.187 79.7799 116.033 77.1898 125.699L66.4309 165.852Z" fill="#F59E0B"/>
<path d="M15.2876 142.286C8.2113 135.209 11.4489 123.126 21.1153 120.536L61.2681 109.777C70.9345 107.187 79.7799 116.033 77.1898 125.699L66.4309 165.852C63.8408 175.518 51.7578 178.756 44.6815 171.679L15.2876 142.286Z" fill="#F59E0B"/>
<path d="M16.3785 105.474C6.7121 108.064 -2.13329 99.2186 0.456822 89.5522L11.2157 49.3994C13.8058 39.733 25.8889 36.4954 32.9652 43.5717L62.359 72.9656C69.4353 80.0419 66.1977 92.1249 56.5313 94.715L16.3785 105.474Z" fill="#F59E0B"/>
</svg>
